<svg xmlns="http://www.w3.org/2000/svg" viewBox="0 0 229.64048 98.634032">
  <g transform="translate(-30.894044 -926.82927)">
    <path fill="#fff" d="M140.74452 1007.8378c0 3.7421-.42108 6.7637-1.26275 9.0653-.84217 2.3015-2.03938 4.0881-3.59263 5.3603-1.55275 1.2727-3.41485 2.1238-5.58532 2.5543-2.16998.4306-4.58376.6456-7.24086.6456-3.59262 0-6.34308-.5616-8.25136-1.6844-1.90879-1.1222-2.86318-2.4694-2.86318-4.0415 0-1.3094.53331-2.4133 1.59992-3.3115 1.06662-.8983 2.4982-1.3472 4.29427-1.3472 1.34717 0 2.42322.365 3.22765 1.0944.80492.73 1.46883 1.4505 1.9927 2.161.59885.7861 1.10385 1.31 1.5155 1.5722.41165.2616.78606.3927 1.12273.3927.71108 0 1.25382-.421 1.62773-1.2632.37441-.8417.56111-2.4789.56111-4.9115v-46.14051l12.85449-3.53651v43.39052m18.30673-42.15557v29.69388c0 .8238.1594 1.59992.4772 2.32987.3183.72945.75775 1.3566 1.31936 1.88048.56112.52384 1.21608.94444 1.9644 1.26274.74882.3183 1.55325.4772 2.41379.4772.97326 0 2.0786-.5447 3.42379-1.48769 2.13223-1.49366 3.42429-2.52005 3.42429-3.73265v-30.42383h12.79788v42.15557h-12.79788v-3.9293c-1.68384 1.4222-3.4804 2.5633-5.38869 3.4238-1.90828.8611-3.76096 1.2911-5.55702 1.2911-2.09549 0-4.04151-.3461-5.83807-1.0383-1.79607-.6922-3.36768-1.6372-4.71485-2.8349-1.34718-1.1972-2.40435-2.6005-3.17154-4.2098-.76669-1.60891-1.15054-3.33049-1.15054-5.16429v-29.69388h12.79788m43.76793 42.15557h-12.74177v-59.10719l12.74177-3.53651v62.6437m5.32413-39.85401l12.79788-3.53651v43.39052h-12.79788v-39.85401m39.53722 18.07484c-1.23494.52387-2.47933 1.13216-3.73315 1.82387-1.25332.69271-2.39491 1.45046-3.42379 2.27376-1.02887.8233-1.8621 1.70271-2.4977 2.63773-.6361.93602-.95439 1.90878-.95439 2.91929 0 .78556.10279 1.54331.30836 2.27326.20607.72944.49607 1.3566.87047 1.88047.37441.52389.78556.94499 1.23495 1.26279.44889.3183.93552.4772 1.4594.4772 1.04774 0 2.10492-.3178 3.17154-.9544 1.06611-.6361 2.25438-1.44055 3.56431-2.41331v-12.18066zm12.854 21.77917h-12.854v-3.3682c-.71157.5989-1.40328 1.1511-2.07711 1.6561-.67334.505-1.43109.9449-2.27326 1.3188-.84217.3745-1.78663.6644-2.83487.8705-1.04775.2056-2.28269.3084-3.70435.3084-1.94652 0-3.69541-.2806-5.24866-.8417-1.55324-.5616-2.87211-1.3288-3.95709-2.3015-1.08499-.9728-1.91822-2.1233-2.49821-3.4521-.57948-1.3283-.86997-2.77881-.86997-4.35043 0-1.60885.30886-3.06825.92609-4.37818.61772-1.30943 1.45989-2.48827 2.526-3.53651 1.06662-1.04774 2.311-1.98327 3.73315-2.80657 1.42166-.82329 2.9466-1.58105 4.57433-2.27325 1.62822-.69221 3.3215-1.32831 5.08032-1.90829 1.75832-.57998 3.49877-1.13216 5.22035-1.65603l1.40328-.33667v-4.15423c0-2.69385-.51493-4.60263-1.54381-5.72536-1.02887-1.12272-2.40435-1.68384-4.12593-1.68384-2.0205 0-3.42379.48663-4.20984 1.45939-.78556.97277-1.17884 2.15161-1.17884 3.53652 0 .78556-.0839 1.55274-.25225 2.30106-.16834.74882-.45883 1.40328-.86998 1.9649-.41165.56111-1.00107 1.0105-1.76826 1.34717-.76718.33667-1.73051.505-2.89098.505-1.79606 0-3.25545-.51444-4.37818-1.54331-1.12273-1.02937-1.68384-2.32987-1.68384-3.90149 0-1.45939.49557-2.816 1.4872-4.06932.99213-1.25382 2.32937-2.32986 4.01371-3.22765 1.68384-.89828 3.62986-1.60935 5.83758-2.13323 2.20771-.52387 4.54651-.78556 7.01641-.78556 3.03151 0 5.64144.27113 7.83078.81387 2.18884.54274 3.99483 1.31887 5.41649 2.32937 1.42165 1.0105 2.4699 2.22658 3.14323 3.64873.67384 1.42166 1.01051 3.01264 1.01051 4.77096v31.60265"/>
    <path fill="#d5635c" d="M215.17909 961.54835c-4.38761 0-7.94498-3.55687-7.94498-7.94498 0-4.38762 3.55737-7.94498 7.94498-7.94498 4.38812 0 7.94499 3.55736 7.94499 7.94498 0 4.38811-3.55687 7.94498-7.94499 7.94498z"/>
    <path fill="#cb3c33" d="M215.17909 944.91354c4.79927 0 8.68983 3.89056 8.68983 8.68983 0 4.79927-3.89056 8.68983-8.68983 8.68983-4.79926 0-8.68982-3.89056-8.68982-8.68983 0-4.79927 3.89056-8.68983 8.68982-8.68983zm0 1.48969c-3.97646 0-7.20014 3.22368-7.20014 7.20014 0 3.97647 3.22368 7.20014 7.20014 7.20014 3.97696 0 7.20014-3.22367 7.20014-7.20014 0-3.97646-3.22318-7.20014-7.20014-7.20014z"/>
    <path fill="#6682e0" d="M134.57822 961.54835c-4.38762 0-7.94498-3.55687-7.94498-7.94498 0-4.38762 3.55736-7.94498 7.94498-7.94498 4.38811 0 7.94498 3.55736 7.94498 7.94498 0 4.38811-3.55687 7.94498-7.94498 7.94498z"/>
    <path fill="#4063d8" d="M134.57822 944.91354c4.79927 0 8.68983 3.89056 8.68983 8.68983 0 4.79927-3.89056 8.68983-8.68983 8.68983-4.79927 0-8.68983-3.89056-8.68983-8.68983 0-4.79927 3.89056-8.68983 8.68983-8.68983zm0 1.48969c-3.97646 0-7.20014 3.22368-7.20014 7.20014 0 3.97647 3.22368 7.20014 7.20014 7.20014 3.97646 0 7.20014-3.22367 7.20014-7.20014 0-3.97646-3.22368-7.20014-7.20014-7.20014z"/>
    <path fill="#aa79c1" d="M236.05901 961.54835c-4.38812 0-7.94499-3.55687-7.94499-7.94498 0-4.38762 3.55687-7.94498 7.94499-7.94498 4.38811 0 7.94498 3.55736 7.94498 7.94498 0 4.38811-3.55687 7.94498-7.94498 7.94498z"/>
    <path fill="#9558b2" d="M236.05901 944.91354c4.79927 0 8.68982 3.89056 8.68982 8.68983 0 4.79927-3.89055 8.68983-8.68982 8.68983-4.79927 0-8.68983-3.89056-8.68983-8.68983 0-4.79927 3.89056-8.68983 8.68983-8.68983zm0 1.48969c-3.97647 0-7.20014 3.22368-7.20014 7.20014 0 3.97647 3.22367 7.20014 7.20014 7.20014 3.97646 0 7.20014-3.22367 7.20014-7.20014 0-3.97646-3.22368-7.20014-7.20014-7.20014z"/>
    <path fill="#60ad51" d="M225.62029 943.46408c-4.38811 0-7.94498-3.55687-7.94498-7.94498 0-4.38762 3.55687-7.94499 7.94498-7.94499 4.38812 0 7.94499 3.55737 7.94499 7.94499 0 4.38811-3.55687 7.94498-7.94499 7.94498z"/>
    <path fill="#389826" d="M225.62029 926.82927c4.79927 0 8.68983 3.89056 8.68983 8.68983 0 4.79926-3.89056 8.68982-8.68983 8.68982-4.79927 0-8.68982-3.89056-8.68982-8.68982 0-4.79927 3.89055-8.68983 8.68982-8.68983zm0 1.48968c-3.97646 0-7.20014 3.22368-7.20014 7.20015 0 3.97696 3.22368 7.20014 7.20014 7.20014 3.97647 0 7.20014-3.22318 7.20014-7.20014 0-3.97647-3.22367-7.20015-7.20014-7.20015z"/>
    <path fill="#fff" d="M32.432141 950.43428q-.05625.16875-.05625.50625v13.21875q0 4.3875 2.025 7.9875 2.08125 3.6 5.625 5.68125 3.6 2.025 7.9875 2.025 4.3875 0 7.93125-2.025 3.6-2.08125 5.625-5.68125 2.08125-3.6 2.08125-7.9875 0-4.3875-2.025-7.93125-1.96875-3.6-5.45625-5.625-3.43125-2.08125-7.70625-2.08125-3.65625 0-6.69375 1.575-3.0375 1.51875-5.00625 4.21875v-16.48125q0-.95625-.61875-1.575-.61875-.61875-1.575-.61875-.95625 0-1.575.61875-.5625.61875-.5625 1.575v12.6zm15.58125 25.48125q-3.20625 0-5.79375-1.51875-2.5875-1.575-4.10625-4.21875-1.4625-2.7-1.4625-6.01875 0-.95625.05625-1.40625.05625-.1125.05625-.28125.5625-4.3875 3.65625-7.2 3.15-2.8125 7.59375-2.8125 3.20625 0 5.79375 1.51875 2.64375 1.51875 4.10625 4.21875 1.51875 2.64375 1.51875 5.9625 0 3.31875-1.51875 6.01875-1.4625 2.64375-4.10625 4.21875-2.5875 1.51875-5.79375 1.51875zm25.033008-24.91875q0-.95625.61875-1.575.61875-.61875 1.575-.61875.95625 0 1.51875.61875.61875.61875.61875 1.575v26.38125q0 .95625-.61875 1.575-.5625.61875-1.51875.61875t-1.575-.61875q-.61875-.61875-.61875-1.575v-26.38125zm2.19375-14.175q1.2375 0 2.1375.84375.9.84375.9 2.19375 0 1.29375-.9 2.19375-.9.9-2.19375.9-1.29375 0-2.19375-.9-.84375-.9-.84375-2.19375 0-1.35.9-2.19375t2.19375-.84375zm27.172261 11.7q4.44375 0 7.9875 2.025t5.56875 5.625q2.08125 3.6 2.08125 8.04375t-2.025 8.04375q-2.025 3.54375-5.625 5.56875-3.54375 2.025-7.9875 2.025-4.443746 0-8.043746-2.025-3.54375-2.025-5.56875-5.56875-2.025-3.6-2.025-8.04375t2.025-8.04375q2.025-3.6 5.56875-5.625 3.6-2.025 8.043746-2.025zm0 3.9375q-3.206246 0-5.849996 1.51875-2.5875 1.51875-4.10625 4.21875-1.4625 2.64375-1.4625 6.01875 0 3.31875 1.4625 6.01875 1.51875 2.64375 4.10625 4.1625 2.64375 1.51875 5.849996 1.51875 3.2625 0 5.85-1.51875 2.5875-1.51875 4.05-4.1625 1.4625-2.7 1.4625-6.01875 0-3.375-1.4625-6.01875-1.4625-2.7-4.05-4.21875-2.5875-1.51875-5.85-1.51875z" font-family="Comfortaa" font-size="56.25" font-weight="400" letter-spacing="0" style="line-height:125%;-inkscape-font-specification:'Comfortaa, Normal';text-align:start" word-spacing="0"/>
    <ellipse cx="35.02351" cy="995.35455" fill="#9558b2" rx="4.1294656" ry="4.1294661"/>
    <ellipse cx="45.616394" cy="1008.6149" fill="#4063d8" rx="3.4112709" ry="3.4112706"/>
    <ellipse cx="42.205318" cy="989.4151" fill="#cb3c33" rx="3.4112709" ry="3.4112706"/>
    <ellipse cx="55.132004" cy="1006.1285" fill="#9558b2" rx="4.1294656" ry="4.1294661"/>
    <ellipse cx="63.481144" cy="997.77179" fill="#4063d8" rx="5.1169405" ry="5.116941"/>
    <circle cx="50.912888" cy="988.03381" r="3.1419907" fill="#389826"/>
    <ellipse cx="92.656456" cy="1013.4493" fill="#cb3c33" rx="3.4112709" ry="3.4112706"/>
    <ellipse cx="80.357582" cy="985.20221" fill="#9558b2" rx="3.8601167" ry="3.860117"/>
    <ellipse cx="114.46821" cy="992.03949" fill="#cb3c33" rx="3.8601167" ry="3.860117"/>
    <ellipse cx="72.098923" cy="1002.261" fill="#4063d8" rx="1.7056699" ry="1.7056701"/>
    <circle cx="102.4442" cy="995.07831" r="2.2442989" fill="#cb3c33"/>
    <ellipse cx="116.26386" cy="1006.5429" fill="#4063d8" rx="1.8851669" ry="1.8851668"/>
    <circle cx="119.04713" cy="984.92596" r="2.6931448" fill="#389826"/>
    <circle cx="122.4589" cy="1008.4077" r="2.6931448" fill="#9558b2"/>
    <circle cx="77.574997" cy="1007.1645" r="2.3340127" fill="#389826"/>
    <ellipse cx="96.516449" cy="990.93451" fill="#4063d8" rx="2.9624248" ry="2.962425"/>
    <circle cx="84.576691" cy="1010.963" r="2.6931448" fill="#9558b2"/>
    <ellipse cx="101.72594" cy="1010.3414" fill="#389826" rx="4.0396824" ry="4.0396819"/>
    <circle cx="109.35058" cy="1001.225" r="4.6680946" fill="#389826"/>
    <circle cx="70.662399" cy="988.93164" r="4.3987455" fill="#cb3c33"/>
    <circle cx="57.645935" cy="991.55609" r="2.3340127" fill="#cb3c33"/>
    <ellipse cx="89.334488" cy="986.79065" fill="#389826" rx="3.6806195" ry="3.6806197"/>
  </g>
</svg>
